<svg fill="none" height="811" viewBox="0 0 1359 811" width="1359" xmlns="http://www.w3.org/2000/svg"><path d="m1359 274.561c0-75.541-72.27-145.508-203.47-197.0331-127.35-49.988-296.4-77.5279-476.022-77.5279s-348.691 27.5399-476.039 77.5279c-131.1988 51.5251-203.469 121.4921-203.469 197.0331s72.2702 145.508 203.469 197.018c54.777 21.501 117.318 38.919 186.134 51.851h-389.603v13.009c0 75.541 72.2702 145.508 203.469 197.018 127.364 50.003 296.417 77.543 476.023 77.543s348.678-27.54 476.028-77.543c131.21-51.51 203.46-121.477 203.46-197.018s-72.27-145.508-203.46-197.033c-54.78-21.501-117.34-38.919-186.139-51.851h389.599v-12.994zm-246.85 228.035c-7.7 13.056-21.47 20.834-36.86 20.834h-115.892c-4.389-91.298-56.424-175.89-136.681-222.897 67.612 12.373 129.979 33.812 180.793 62.237 50.42 28.192 86.98 61.212 108.67 98.128 7.67 13.056 7.65 28.642-.03 41.683zm-615.972-97.088c0-65.031 82.237-117.938 183.314-117.938s183.314 52.907 183.314 117.938-82.237 117.937-183.314 117.937-183.314-52.906-183.314-117.937zm-249.341-97.104c7.701-13.04 21.471-20.834 36.856-20.834h115.893c4.389 91.298 56.425 175.89 136.665 222.897-67.612-12.373-129.963-33.812-180.779-62.237-50.419-28.207-86.974-61.212-108.666-98.128-7.669-13.056-7.669-28.642.031-41.683zm152.749-46.852h-115.893c-15.385 0-29.155-7.793-36.856-20.834-7.7-13.04-7.716-28.626-.031-41.682 21.676-36.917 58.247-69.921 108.666-98.129 50.785-28.409 113.136-49.8479 180.779-62.2362-80.24 46.9918-132.276 131.5832-136.665 222.8812zm559.828 287.896h115.896c15.38 0 29.15 7.793 36.85 20.834 7.7 13.04 7.72 28.626.03 41.682-21.69 36.917-58.24 69.921-108.66 98.129-50.786 28.425-113.138 49.863-180.781 62.236 80.24-46.992 132.292-131.583 136.665-222.896zm-45.856-308.217c-9.539 12.916-24.354 20.321-40.627 20.321h-386.878c-16.273 0-31.072-7.405-40.627-20.321-9.539-12.901-12.09-28.969-7.019-44.105 34.336-102.3507 131.214-171.123 241.085-171.123s206.749 68.7723 241.086 171.123c5.07 15.121 2.519 31.204-7.02 44.105zm-511.31-191.4138c-21.201 8.5228-41.309 18.0702-59.927 28.5024-86.753 48.5284-137.505 113.5594-143.083 183.2474h-117.6666c-13.722 0-26.0338-7.513-32.1342-19.622s-4.7536-25.677 3.5652-36.311c6.1638-7.871 13.4843-15.757 21.7397-23.426 32.3239-30.009 78.9569-57.098 138.5829-80.509 55.3-21.7183 118.792-39.152 188.891-51.8663zm-320.6766 237.7528h117.6506c5.578 69.673 56.33 134.719 143.083 183.248 18.634 10.432 38.742 19.98 59.927 28.518-70.1-12.745-133.592-30.163-188.891-51.882-59.642-23.41-106.259-50.5-138.5831-80.508-8.2554-7.669-15.5759-15.556-21.7397-23.426-8.3187-10.65-9.6656-24.218-3.5652-36.311 6.0846-12.109 18.4122-19.623 32.1342-19.623zm363.8706 282.215c9.539-12.916 24.354-20.321 40.627-20.321h386.878c16.273 0 31.088 7.405 40.627 20.321 9.539 12.901 12.09 28.984 7.02 44.104-34.321 102.351-131.215 171.124-241.086 171.124s-206.749-68.773-241.086-171.124c-5.07-15.12-2.519-31.203 7.02-44.104zm511.326 191.429c21.201-8.523 41.309-18.086 59.932-28.518 86.75-48.529 137.5-113.56 143.08-183.248h117.65c13.72 0 26.03 7.514 32.13 19.623s4.76 25.677-3.56 36.311c-6.17 7.871-13.49 15.757-21.74 23.426-32.34 30.024-78.97 57.114-138.58 80.509-55.3 21.718-118.8 39.152-188.896 51.881zm320.662-237.769h-117.65c-5.58-69.672-56.33-134.719-143.08-183.248-18.591-10.401-38.715-19.964-59.948-28.517 70.118 12.745 133.588 30.163 188.908 51.881 59.64 23.411 106.26 50.501 138.58 80.509 8.26 7.669 15.58 15.555 21.74 23.426 8.32 10.65 9.67 24.218 3.57 36.311-6.09 12.109-18.42 19.623-32.14 19.623zm-1019.77 56.508c9.222-18.815 28.188-30.489 49.5-30.489h92.426c4.389 91.313 56.425 175.889 136.665 222.896-67.643-12.373-129.994-33.811-180.779-62.236-38.472-21.517-69.148-46.123-91.205-73.15-13.326-16.316-15.861-38.174-6.623-57.005zm-196.6241-2.872c7.1621-17.03 23.2609-27.617 42.0061-27.617h96.18c5.578 69.672 56.33 134.719 143.083 183.247 18.634 10.433 38.742 19.98 59.927 28.518-70.1-12.745-133.576-30.163-188.907-51.881-59.626-23.411-106.259-50.501-138.5829-80.509-1.3152-1.226-2.6145-2.468-3.8821-3.695-13.1516-12.776-16.9228-31.188-9.8399-48.047zm895.7321-527.2638c70.102 12.7298 133.592 30.1635 188.892 51.8668 59.63 23.41 106.26 50.5 138.58 80.508 1.32 1.227 2.62 2.468 3.88 3.695 13.16 12.776 16.93 31.188 9.84 48.047-7.16 17.03-23.26 27.618-42.02 27.618h-96.18c-5.58-69.673-56.33-134.719-143.08-183.2479-18.635-10.4323-38.742-19.9797-59.928-28.5024zm144.592 181.2608c-9.23 18.8-28.19 30.489-49.5 30.489h-92.43c-4.389-91.297-56.425-175.8889-136.681-222.8962 67.612 12.3728 129.979 33.8117 180.791 62.2362 38.46 21.501 69.14 46.123 91.21 73.15 13.32 16.332 15.86 38.174 6.62 57.021z" fill="#000"/></svg>